# File produced by Open Asset Import Library (http://www.assimp.sf.net)
# (assimp v3.1.22885447)

mtllib Bote%20Ketchup.mtl

# vertex positions
v 0.000000 -29.206459 -29.206453
v 0.000000 141.213684 -29.206478
v 11.176827 141.213684 -26.983269
v 11.176827 -29.206459 -26.983242
v 20.652082 141.213684 -20.652105
v 20.652082 -29.206459 -20.652079
v 26.983246 141.213684 -11.176850
v 26.983246 -29.206459 -11.176823
v 29.206455 141.213684 -0.000023
v 29.206455 -29.206459 0.000005
v 26.983246 141.213684 11.176805
v 26.983246 -29.206451 11.176832
v 20.652082 141.213684 20.652060
v 20.652082 -29.206451 20.652086
v 11.176827 141.213684 26.983223
v 11.176827 -29.206451 26.983250
v 0.000000 141.213684 29.206434
v 0.000000 -29.206451 29.206459
v -11.176827 141.213684 26.983223
v -11.176827 -29.206451 26.983250
v -20.652082 141.213684 20.652060
v -20.652082 -29.206451 20.652086
v -26.983246 141.213684 11.176805
v -26.983246 -29.206451 11.176832
v -29.206455 141.213684 -0.000023
v -29.206455 -29.206459 0.000005
v -26.983246 141.213684 -11.176850
v -26.983246 -29.206459 -11.176823
v -20.652082 141.213684 -20.652105
v -20.652082 -29.206459 -20.652079
v 8.075171 141.213669 -19.495207
v 14.920969 141.213669 -14.920992
v -11.176827 141.213684 -26.983269
v -11.176827 -29.206459 -26.983242
v 12.790630 -29.206459 5.298058
v 13.844480 -29.206459 0.000005
v -14.920969 141.213669 14.920946
v -8.075171 141.213669 19.495161
v -8.075183 160.439819 19.495159
v -14.920982 160.439819 14.920943
v 14.920969 141.213669 14.920946
v 8.075171 141.213669 19.495161
v -19.495184 141.213669 8.075149
v -21.101437 141.213669 -0.000023
v 21.101437 141.213669 -0.000023
v 19.495184 141.213669 8.075149
v -14.920969 141.213669 -14.920992
v -8.075171 141.213669 -19.495207
v 19.495184 141.213669 -8.075194
v -0.000000 141.213669 21.101414
v -0.000000 141.213669 -21.101460
v -19.495184 141.213669 -8.075194
v -8.075183 160.439819 -19.495211
v -14.920982 160.439819 -14.920995
v -4.546196 160.439835 -4.546210
v -2.460390 160.439835 -5.939902
v 14.920958 160.439819 -14.920995
v 19.495173 160.439819 -8.075197
v -19.495195 160.439819 8.075146
v 21.101425 160.439819 -0.000026
v -21.101448 160.439819 -0.000026
v 19.495173 160.439819 8.075146
v -19.495195 160.439819 -8.075197
v 14.920958 160.439819 14.920943
v 8.075159 160.439819 19.495159
v -0.000012 160.439819 21.101410
v -0.000012 160.439819 -21.101463
v 8.075159 160.439819 -19.495211
v -4.588917 171.608032 -0.000028
v -4.239606 171.608032 1.756070
v -1.657667 188.249710 0.686592
v -1.794244 188.249710 -0.000031
v 2.460365 160.439835 5.939849
v -0.000012 160.439835 6.429249
v -0.000012 160.439835 -6.429301
v 2.460365 160.439835 -5.939902
v -2.460390 160.439835 5.939849
v 4.546172 160.439835 -4.546210
v -4.546196 160.439835 4.546157
v 5.939864 160.439835 -2.460404
v -5.939888 160.439835 2.460351
v 6.429264 160.439835 -0.000026
v -6.429287 160.439835 -0.000026
v 5.939864 160.439835 2.460351
v -5.939888 160.439835 -2.460404
v 4.546172 160.439835 4.546157
v 0.686611 188.249710 -1.657685
v -0.000012 188.249710 -1.794263
v -0.000012 189.964462 -0.956378
v 0.365966 189.964462 -0.883580
v 4.239582 171.608032 1.756070
v 4.588893 171.608032 -0.000028
v 1.794221 188.249710 -0.000031
v 1.657643 188.249710 0.686592
v -4.239606 171.608032 -1.756126
v -1.657667 188.249710 -0.686654
v 3.244834 171.608032 3.244818
v 1.268702 188.249710 1.268683
v -3.244858 171.608032 -3.244874
v -1.268726 188.249710 -1.268744
v 1.756086 171.608032 4.239566
v 0.686611 188.249710 1.657624
v -1.756110 171.608032 -4.239623
v -0.686635 188.249710 -1.657685
v -0.000012 171.608032 4.588877
v -0.000012 188.249710 1.794202
v 1.756086 171.608032 -4.239623
v -0.000012 171.608032 -4.588933
v -1.756110 171.608032 4.239566
v -0.686635 188.249710 1.657624
v 3.244834 171.608032 -3.244874
v 1.268702 188.249710 -1.268744
v -3.244858 171.608032 3.244818
v -1.268726 188.249710 1.268683
v 4.239582 171.608032 -1.756126
v 1.657643 188.249710 -0.686654
v -0.365990 189.964462 -0.883580
v -0.676251 189.964462 -0.676270
v -0.883561 189.964462 -0.366009
v -0.956359 189.964462 -0.000031
v -0.883561 189.964462 0.365947
v -0.676251 189.964462 0.676208
v -0.365990 189.964462 0.883518
v -0.000012 189.964462 0.956316
v 0.365966 189.964462 0.883518
v 0.676227 189.964462 0.676208
v 0.883537 189.964462 0.365947
v 0.956335 189.964462 -0.000031
v 0.883537 189.964462 -0.366009
v 0.676227 189.964462 -0.676270
v -5.298053 -29.206459 12.790635
v -9.789524 -29.206459 9.789529
v 0.000000 -29.206459 0.000005
v -5.298053 -29.206459 -12.790626
v -9.789524 -29.206459 -9.789519
v 12.790630 -29.206459 -5.298048
v 9.789524 -29.206459 -9.789519
v -0.000000 -29.206459 13.844484
v 5.298053 -29.206459 12.790635
v 5.298053 -29.206459 -12.790626
v -0.000000 -29.206459 -13.844474
v -12.790630 -29.206459 -5.298048
v -13.844480 -29.206459 0.000005
v 9.789524 -29.206459 9.789529
v -12.790630 -29.206459 5.298058

# UV coordinates
vt 0.622442 0.350844
vt 0.038421 0.350844
vt 0.038421 0.311791
vt 0.622442 0.311791
vt 0.038421 0.272739
vt 0.622442 0.272738
vt 0.038421 0.233686
vt 0.622442 0.233685
vt 0.038421 0.194633
vt 0.622442 0.194632
vt 0.038421 0.155580
vt 0.622442 0.155580
vt 0.038421 0.116527
vt 0.622442 0.116527
vt 0.038421 0.077474
vt 0.622442 0.077474
vt 0.038421 0.038421
vt 0.622442 0.038421
vt 0.622442 0.740109
vt 0.038421 0.740110
vt 0.038421 0.701057
vt 0.622442 0.701056
vt 0.038421 0.662004
vt 0.622442 0.662003
vt 0.038421 0.622951
vt 0.622442 0.622951
vt 0.038421 0.583898
vt 0.622442 0.583898
vt 0.038421 0.544845
vt 0.622442 0.544845
vt 0.038421 0.505792
vt 0.622442 0.505792
vt 0.728600 0.340910
vt 0.761071 0.319214
vt 0.771700 0.344875
vt 0.748240 0.360551
vt 0.038421 0.466739
vt 0.622442 0.466739
vt 0.038421 0.427686
vt 0.622442 0.427687
vt 0.777924 0.038421
vt 0.816977 0.038421
vt 0.806706 0.090054
vt 0.788194 0.090054
vt 0.876216 0.368026
vt 0.876216 0.339810
vt 0.942103 0.339810
vt 0.942103 0.368026
vt 0.761071 0.504154
vt 0.728600 0.482458
vt 0.748240 0.462817
vt 0.771700 0.478493
vt 0.699284 0.688704
vt 0.706903 0.650402
vt 0.732564 0.661031
vt 0.727060 0.688704
vt 0.706903 0.449986
vt 0.699284 0.411684
vt 0.727060 0.411684
vt 0.732564 0.439357
vt 0.728600 0.617931
vt 0.761071 0.596234
vt 0.771700 0.621895
vt 0.748240 0.637571
vt 0.761071 0.781174
vt 0.728600 0.759478
vt 0.748240 0.739838
vt 0.771700 0.755513
vt 0.706903 0.373382
vt 0.732564 0.384011
vt 0.799374 0.511773
vt 0.799374 0.483998
vt 0.799374 0.311595
vt 0.799374 0.339370
vt 0.706903 0.727007
vt 0.732564 0.716377
vt 0.799373 0.788793
vt 0.799373 0.761018
vt 0.799373 0.588615
vt 0.799373 0.616391
vt 0.083061 0.956074
vt 0.059601 0.940399
vt 0.095155 0.904845
vt 0.102303 0.909621
vt 0.942103 0.755237
vt 0.942103 0.783452
vt 0.876216 0.783452
vt 0.876216 0.755237
vt 0.876216 0.396241
vt 0.942103 0.396241
vt 0.942103 0.727021
vt 0.876216 0.727021
vt 0.876216 0.424456
vt 0.942103 0.424456
vt 0.942103 0.698806
vt 0.876216 0.698806
vt 0.876216 0.452672
vt 0.942103 0.452672
vt 0.942103 0.670591
vt 0.876216 0.670591
vt 0.876216 0.480887
vt 0.942103 0.480887
vt 0.942103 0.642375
vt 0.876216 0.642375
vt 0.876216 0.509103
vt 0.942103 0.509103
vt 0.942103 0.614160
vt 0.876216 0.614160
vt 0.942103 0.811667
vt 0.942103 0.839883
vt 0.876216 0.839883
vt 0.876216 0.811667
vt 0.876216 0.537318
vt 0.942103 0.537318
vt 0.876216 0.311595
vt 0.942103 0.311595
vt 0.550188 0.850995
vt 0.550385 0.844866
vt 0.608081 0.848598
vt 0.608004 0.850996
vt 0.259890 0.961579
vt 0.232217 0.956074
vt 0.251459 0.909621
vt 0.259890 0.911298
vt 0.232217 0.822456
vt 0.259890 0.816952
vt 0.259890 0.867233
vt 0.251459 0.868910
vt 0.110735 0.961579
vt 0.110735 0.911298
vt 0.083061 0.822456
vt 0.110735 0.816952
vt 0.110735 0.867233
vt 0.102303 0.868910
vt 0.208757 0.838132
vt 0.244311 0.873686
vt 0.059601 0.838132
vt 0.095155 0.873686
vt 0.193081 0.861592
vt 0.239535 0.880834
vt 0.043926 0.861592
vt 0.090379 0.880834
vt 0.187577 0.889265
vt 0.237857 0.889265
vt 0.038421 0.889265
vt 0.088702 0.889265
vt 0.193081 0.916939
vt 0.239535 0.897697
vt 0.043926 0.916939
vt 0.090379 0.897697
vt 0.208757 0.940399
vt 0.244311 0.904845
vt 0.706014 0.882428
vt 0.702926 0.881152
vt 0.706258 0.875909
vt 0.707089 0.876300
vt 0.375711 0.857124
vt 0.375515 0.850995
vt 0.433331 0.850996
vt 0.433408 0.853394
vt 0.550384 0.857124
vt 0.608081 0.853394
vt 0.376300 0.863229
vt 0.433640 0.855782
vt 0.550973 0.863229
vt 0.608313 0.855782
vt 0.377279 0.869285
vt 0.434026 0.858151
vt 0.551952 0.869285
vt 0.608699 0.858151
vt 0.378644 0.875268
vt 0.434564 0.860489
vt 0.377280 0.832706
vt 0.378646 0.826723
vt 0.434564 0.841503
vt 0.434026 0.843841
vt 0.553318 0.875268
vt 0.609237 0.860489
vt 0.551953 0.832706
vt 0.553319 0.826723
vt 0.609237 0.841503
vt 0.608699 0.843841
vt 0.376301 0.838761
vt 0.433640 0.846210
vt 0.550974 0.838761
vt 0.608313 0.846210
vt 0.375712 0.844866
vt 0.433408 0.848598
vt 0.336732 0.850998
vt 0.337005 0.842400
vt 0.511679 0.842400
vt 0.512498 0.833836
vt 0.337825 0.833836
vt 0.513862 0.825342
vt 0.339188 0.825342
vt 0.515762 0.816952
vt 0.515767 0.885038
vt 0.513867 0.876651
vt 0.341089 0.816952
vt 0.341094 0.885038
vt 0.339194 0.876652
vt 0.512503 0.868159
vt 0.337829 0.868159
vt 0.511681 0.859596
vt 0.337008 0.859596
vt 0.511406 0.850998
vt 0.705650 0.875227
vt 0.705360 0.874360
vt 0.705402 0.873443
vt 0.705801 0.872619
vt 0.706488 0.872012
vt 0.707363 0.871725
vt 0.708283 0.871759
vt 0.709110 0.872150
vt 0.709718 0.872834
vt 0.710013 0.873705
vt 0.709969 0.874625
vt 0.709573 0.875450
vt 0.708886 0.876053
vt 0.708014 0.876338
vt 0.700562 0.878790
vt 0.709353 0.865635
vt 0.712443 0.866908
vt 0.709353 0.882429
vt 0.706016 0.865637
vt 0.712444 0.881155
vt 0.702928 0.866913
vt 0.714812 0.878793
vt 0.700563 0.869275
vt 0.716093 0.875703
vt 0.699284 0.872363
vt 0.716093 0.872360
vt 0.699284 0.875702
vt 0.714811 0.869269
vt 0.843983 0.145843
vt 0.836899 0.162946
vt 0.797450 0.136587
vt 0.895616 0.156113
vt 0.880671 0.192193
vt 0.741844 0.219808
vt 0.714229 0.192193
vt 0.758002 0.162946
vt 0.771092 0.176035
vt 0.714229 0.080980
vt 0.741844 0.053366
vt 0.771092 0.097138
vt 0.758002 0.110228
vt 0.880671 0.080980
vt 0.895616 0.117061
vt 0.843983 0.127331
vt 0.836899 0.110228
vt 0.699284 0.156113
vt 0.699284 0.117061
vt 0.750918 0.127331
vt 0.750918 0.145843
vt 0.816977 0.234753
vt 0.777924 0.234753
vt 0.788194 0.183120
vt 0.806706 0.183120
vt 0.853057 0.053366
vt 0.823809 0.097138
vt 0.853057 0.219808
vt 0.823809 0.176035

# vertex normals
vn 0.000000 -0.000000 -1.000000
vn 0.382683 -0.000000 -0.923880
vn 0.707107 -0.000000 -0.707107
vn 0.923880 -0.000000 -0.382683
vn 1.000000 0.000000 0.000000
vn 0.923880 0.000000 0.382683
vn 0.707107 0.000000 0.707107
vn 0.382683 0.000000 0.923880
vn 0.000000 0.000000 1.000000
vn -0.382683 0.000000 0.923880
vn -0.707107 0.000000 0.707107
vn -0.923880 0.000000 0.382683
vn -1.000000 0.000000 0.000000
vn -0.923880 -0.000000 -0.382683
vn -0.707107 -0.000000 -0.707107
vn -0.000001 1.000000 0.000001
vn -0.000001 1.000000 0.000001
vn -0.000001 1.000000 0.000001
vn -0.000001 1.000000 0.000001
vn -0.382683 -0.000000 -0.923880
vn 0.000000 -1.000000 0.000000
vn 0.000000 -1.000000 0.000000
vn 0.000000 -1.000000 0.000000
vn 0.000000 -1.000000 0.000000
vn -0.707107 -0.000000 0.707107
vn -0.382683 -0.000000 0.923880
vn -0.382683 -0.000000 0.923880
vn -0.707107 -0.000000 0.707107
vn -0.000001 1.000000 -0.000002
vn -0.000001 1.000000 -0.000001
vn -0.000001 1.000000 -0.000001
vn 0.000001 1.000000 -0.000000
vn 0.000001 1.000000 -0.000001
vn 0.000001 1.000000 -0.000001
vn -0.000001 1.000000 -0.000001
vn -0.000001 1.000000 -0.000000
vn -0.000001 1.000000 -0.000001
vn 0.000001 1.000000 -0.000001
vn 0.000001 1.000000 -0.000002
vn 0.000001 1.000000 -0.000002
vn 0.000001 1.000000 -0.000001
vn 0.000001 1.000000 0.000001
vn 0.000001 1.000000 0.000001
vn 0.000001 1.000000 0.000001
vn 0.000001 1.000000 0.000001
vn -0.000001 1.000000 0.000000
vn -0.000001 1.000000 0.000000
vn 0.000000 1.000000 -0.000002
vn 0.000000 1.000000 -0.000002
vn -0.000000 1.000000 0.000002
vn -0.000000 1.000000 0.000002
vn 0.000001 1.000000 0.000000
vn 0.000001 1.000000 0.000000
vn 0.000000 1.000000 -0.000001
vn -0.000000 1.000000 -0.000001
vn -0.000000 1.000000 -0.000001
vn 0.000000 1.000000 -0.000001
vn 0.923880 0.000001 -0.382683
vn 0.707107 0.000000 -0.707107
vn 0.707107 0.000000 -0.707107
vn 0.923880 0.000001 -0.382683
vn -0.923880 -0.000001 0.382683
vn -0.923880 -0.000001 0.382683
vn 1.000000 0.000001 -0.000000
vn 1.000000 0.000001 -0.000000
vn -1.000000 -0.000001 0.000000
vn -1.000000 -0.000001 0.000000
vn 0.923880 0.000001 0.382683
vn 0.923880 0.000001 0.382683
vn -0.923880 -0.000001 -0.382683
vn -0.923880 -0.000001 -0.382683
vn 0.707107 0.000001 0.707107
vn 0.707107 0.000001 0.707107
vn -0.707107 -0.000001 -0.707107
vn -0.707107 -0.000001 -0.707107
vn 0.382684 0.000000 0.923879
vn 0.382683 0.000000 0.923880
vn -0.382683 -0.000000 -0.923880
vn -0.382683 -0.000000 -0.923880
vn 0.000000 0.000000 1.000000
vn -0.000000 0.000000 1.000000
vn 0.382684 0.000000 -0.923879
vn 0.000000 -0.000000 -1.000000
vn -0.000000 -0.000000 -1.000000
vn 0.382683 0.000000 -0.923880
vn -0.986448 0.164073 -0.000000
vn -0.911359 0.164073 0.377497
vn -0.881204 0.300416 0.365007
vn -0.953808 0.300416 -0.000000
vn -0.000001 1.000000 0.000001
vn -0.000000 1.000000 0.000001
vn -0.000000 1.000000 0.000001
vn -0.000001 1.000000 0.000001
vn 0.000001 1.000000 -0.000001
vn 0.000001 1.000000 -0.000001
vn 0.000001 1.000000 -0.000001
vn 0.000001 1.000000 -0.000001
vn -0.000001 1.000000 0.000001
vn -0.000001 1.000000 0.000001
vn -0.000000 1.000000 -0.000001
vn -0.000000 1.000000 -0.000001
vn 0.000000 1.000000 0.000001
vn 0.000001 1.000000 -0.000001
vn 0.000001 1.000000 -0.000001
vn -0.000001 1.000000 0.000000
vn -0.000001 1.000000 0.000000
vn 0.000001 1.000000 -0.000000
vn -0.000001 1.000000 -0.000000
vn 0.000001 1.000000 0.000000
vn -0.000002 1.000000 -0.000001
vn 0.000000 1.000000 0.000001
vn 0.000000 1.000000 0.000001
vn 0.365006 0.300416 -0.881204
vn 0.000000 0.300416 -0.953808
vn 0.000000 0.439024 -0.898475
vn 0.343829 0.439025 -0.830084
vn 0.911359 0.164073 0.377497
vn 0.986448 0.164073 -0.000000
vn 0.953808 0.300416 -0.000000
vn 0.881204 0.300416 0.365007
vn -0.911359 0.164073 -0.377497
vn -0.881204 0.300416 -0.365006
vn 0.697524 0.164073 0.697524
vn 0.674443 0.300416 0.674445
vn -0.697524 0.164073 -0.697524
vn -0.674444 0.300416 -0.674445
vn 0.377497 0.164073 0.911359
vn 0.365006 0.300416 0.881204
vn -0.377498 0.164073 -0.911359
vn -0.365006 0.300416 -0.881204
vn 0.000000 0.164073 0.986448
vn 0.000000 0.300416 0.953808
vn 0.377498 0.164073 -0.911359
vn 0.000000 0.164073 -0.986448
vn -0.377498 0.164073 0.911359
vn -0.365006 0.300416 0.881204
vn 0.697525 0.164073 -0.697524
vn 0.674444 0.300416 -0.674445
vn -0.697524 0.164073 0.697524
vn -0.674443 0.300417 0.674446
vn 0.911359 0.164073 -0.377497
vn 0.881204 0.300415 -0.365006
vn 0.986693 0.162594 -0.000000
vn 0.911586 0.162594 -0.377591
vn -0.911586 0.162594 0.377591
vn -0.697697 0.162594 0.697697
vn 0.697697 0.162594 -0.697697
vn -0.377591 0.162594 0.911586
vn 0.377591 0.162594 -0.911586
vn 0.000000 0.162594 0.986693
vn 0.000000 0.162594 -0.986693
vn -0.377591 0.162594 -0.911586
vn 0.377591 0.162594 0.911586
vn -0.697697 0.162594 -0.697697
vn 0.697697 0.162594 0.697697
vn -0.911586 0.162594 -0.377591
vn 0.911586 0.162594 0.377591
vn -0.986693 0.162594 -0.000000
vn 0.000000 1.000000 -0.000000
vn -0.343829 0.439025 -0.830084
vn 0.000000 0.439024 0.898475
vn -0.343829 0.439025 0.830084
vn 0.635317 0.439024 -0.635319
vn -0.635314 0.439026 0.635321
vn 0.830083 0.439024 -0.343831
vn -0.830082 0.439025 0.343832
vn 0.898475 0.439026 -0.000001
vn -0.898475 0.439025 -0.000001
vn 0.830083 0.439024 0.343831
vn -0.830084 0.439024 -0.343830
vn 0.635315 0.439025 0.635320
vn -0.635317 0.439024 -0.635319
vn 0.343829 0.439025 0.830084
vn -0.000000 -1.000000 0.000000
vn -0.000000 -1.000000 0.000000
vn -0.000000 -1.000000 0.000000
vn -0.000000 -1.000000 0.000000
vn -0.000000 -1.000000 0.000000
vn -0.000000 -1.000000 0.000000
vn -0.000000 -1.000000 -0.000000
vn -0.000000 -1.000000 0.000000
vn -0.000000 -1.000000 0.000000
vn 0.000000 -1.000000 0.000000
vn 0.000000 -1.000000 0.000000
vn 0.000000 -1.000000 0.000000
vn 0.000000 -1.000000 0.000000
vn 0.000000 -1.000000 0.000000
vn -0.000000 -1.000000 0.000000
vn -0.000000 -1.000000 0.000000
vn 0.000000 -1.000000 0.000000
vn 0.000000 -1.000000 -0.000000
vn 0.000000 -1.000000 -0.000000
vn 0.000000 -1.000000 0.000000
vn 0.000000 -1.000000 0.000000
vn -0.000000 -1.000000 0.000000
vn -0.000000 -1.000000 0.000000
vn -0.000000 -1.000000 0.000000
vn -0.000000 -1.000000 0.000000
vn 0.000000 -1.000000 0.000000
vn 0.000000 -1.000000 0.000000
vn -0.000000 -1.000000 0.000000
vn -0.000000 -1.000000 0.000000

# Mesh
g Cylinder
usemtl DefaultMaterial
f 3/3/2 4/4/2 1/1/1 2/2/1
f 5/5/3 6/6/3 4/4/2 3/3/2
f 7/7/4 8/8/4 6/6/3 5/5/3
f 9/9/5 10/10/5 8/8/4 7/7/4
f 10/10/5 9/9/5 11/11/6 12/12/6
f 12/12/6 11/11/6 13/13/7 14/14/7
f 14/14/7 13/13/7 15/15/8 16/16/8
f 16/16/8 15/15/8 17/17/9 18/18/9
f 18/19/9 17/20/9 19/21/10 20/22/10
f 20/22/10 19/21/10 21/23/11 22/24/11
f 22/24/11 21/23/11 23/25/12 24/26/12
f 24/26/12 23/25/12 25/27/13 26/28/13
f 27/29/14 28/30/14 26/28/13 25/27/13
f 29/31/15 30/32/15 28/30/14 27/29/14
f 32/36/19 5/33/16 3/34/17 31/35/18
f 33/37/20 34/38/20 30/32/15 29/31/15
f 2/39/1 1/40/1 34/38/20 33/37/20
f 10/41/21 12/42/22 35/43/23 36/44/24
f 38/46/26 39/47/27 40/48/28 37/45/25
f 13/50/30 41/51/31 42/52/29 15/49/29
f 43/55/34 44/56/32 25/53/32 23/54/33
f 11/57/35 9/58/36 45/59/36 46/60/37
f 19/62/39 38/63/40 37/64/41 21/61/38
f 48/68/45 33/65/42 29/66/43 47/67/44
f 7/69/46 5/33/16 32/36/19 49/70/47
f 15/49/29 42/52/29 50/72/49 17/71/48
f 31/35/18 3/34/17 2/73/50 51/74/51
f 44/56/32 52/76/53 27/75/52 25/53/32
f 13/50/30 11/57/35 46/60/37 41/51/31
f 37/64/41 43/55/34 23/54/33 21/61/38
f 51/78/51 2/77/50 33/65/42 48/68/45
f 9/58/36 7/69/46 49/70/47 45/59/36
f 17/79/48 50/80/49 38/63/40 19/62/39
f 52/76/53 47/67/44 29/66/43 27/75/52
f 55/83/56 56/84/57 53/81/54 54/82/55
f 58/88/61 49/85/58 32/86/59 57/87/60
f 37/45/25 40/48/28 59/90/63 43/89/62
f 60/92/65 45/91/64 49/85/58 58/88/61
f 43/89/62 59/90/63 61/94/67 44/93/66
f 45/91/64 60/92/65 62/96/69 46/95/68
f 63/98/71 52/97/70 44/93/66 61/94/67
f 46/95/68 62/96/69 64/100/73 41/99/72
f 54/102/75 47/101/74 52/97/70 63/98/71
f 41/99/72 64/100/73 65/104/77 42/103/76
f 53/106/79 48/105/78 47/101/74 54/102/75
f 42/103/76 65/104/77 66/108/81 50/107/80
f 68/112/85 31/109/82 51/110/83 67/111/84
f 67/114/84 51/113/83 48/105/78 53/106/79
f 50/115/80 66/116/81 39/47/27 38/46/26
f 57/87/60 32/86/59 31/109/82 68/112/85
f 71/119/88 72/120/89 69/117/86 70/118/87
f 65/122/91 73/123/92 74/124/93 66/121/90
f 76/128/97 68/125/94 67/126/95 75/127/96
f 75/130/96 67/129/95 53/81/54 56/84/57
f 66/132/90 74/133/93 77/134/99 39/131/98
f 57/135/100 68/125/94 76/128/97 78/136/101
f 77/134/99 79/138/102 40/137/102 39/131/98
f 58/139/103 57/135/100 78/136/101 80/140/104
f 79/138/102 81/142/106 59/141/105 40/137/102
f 60/143/107 58/139/103 80/140/104 82/144/107
f 81/142/106 83/146/108 61/145/108 59/141/105
f 62/147/109 60/143/107 82/144/107 84/148/109
f 83/146/108 85/150/110 63/149/110 61/145/108
f 64/151/111 62/147/109 84/148/109 86/152/112
f 85/150/110 55/83/56 54/82/55 63/149/110
f 65/122/91 64/151/111 86/152/112 73/123/92
f 90/156/116 87/153/113 88/154/114 89/155/115
f 91/157/117 92/158/118 93/159/119 94/160/120
f 72/120/89 96/162/122 95/161/121 69/117/86
f 97/163/123 91/157/117 94/160/120 98/164/124
f 96/162/122 100/166/126 99/165/125 95/161/121
f 101/167/127 97/163/123 98/164/124 102/168/128
f 100/166/126 104/170/130 103/169/129 99/165/125
f 101/167/127 102/168/128 106/172/132 105/171/131
f 87/176/113 107/173/133 108/174/134 88/175/114
f 88/178/114 108/177/134 103/169/129 104/170/130
f 105/180/131 106/181/132 110/182/136 109/179/135
f 111/183/137 107/173/133 87/176/113 112/184/138
f 110/182/136 114/186/140 113/185/139 109/179/135
f 115/187/141 111/183/137 112/184/138 116/188/142
f 114/186/140 71/119/88 70/118/87 113/185/139
f 92/158/118 115/187/141 116/188/142 93/159/119
f 82/189/143 80/190/144 115/187/141 92/158/118
f 113/185/139 70/118/87 81/191/145 79/192/146
f 80/190/144 78/193/147 111/183/137 115/187/141
f 77/194/148 109/179/135 113/185/139 79/192/146
f 111/183/137 78/193/147 76/195/149 107/173/133
f 74/196/150 105/180/131 109/179/135 77/194/148
f 108/177/134 75/197/151 56/198/152 103/169/129
f 107/173/133 76/195/149 75/199/151 108/174/134
f 73/201/153 101/167/127 105/171/131 74/200/150
f 103/169/129 56/198/152 55/202/154 99/165/125
f 86/203/155 97/163/123 101/167/127 73/201/153
f 95/161/121 99/165/125 55/202/154 85/204/156
f 86/203/155 84/205/157 91/157/117 97/163/123
f 69/117/86 95/161/121 85/204/156 83/206/158
f 84/205/157 82/189/143 92/158/118 91/157/117
f 70/118/87 69/117/86 83/206/158 81/191/145
f 127/217/159 128/218/159 129/219/159 130/220/159 90/156/159 89/155/159 117/207/159 118/208/159 119/209/159 120/210/159 121/211/159 122/212/159 123/213/159 124/214/159 125/215/159 126/216/159
f 89/155/115 88/154/114 104/221/130 117/207/160
f 106/223/132 124/214/161 123/213/162 110/222/136
f 112/224/138 87/153/113 90/156/116 130/220/163
f 123/213/162 122/212/164 114/225/140 110/222/136
f 116/226/142 112/224/138 130/220/163 129/219/165
f 122/212/164 121/211/166 71/227/88 114/225/140
f 93/228/119 116/226/142 129/219/165 128/218/167
f 121/211/166 120/210/168 72/229/89 71/227/88
f 94/230/120 93/228/119 128/218/167 127/217/169
f 120/210/168 119/209/170 96/231/122 72/229/89
f 98/232/124 94/230/120 127/217/169 126/216/171
f 119/209/170 118/208/172 100/233/126 96/231/122
f 102/234/128 98/232/124 126/216/171 125/215/173
f 118/208/172 117/207/160 104/221/130 100/233/126
f 102/234/128 125/215/173 124/214/161 106/223/132
f 131/235/174 132/236/175 133/237/176
f 132/236/175 131/235/174 20/238/177 22/239/178
f 134/242/181 135/243/182 30/240/179 34/241/180
f 6/244/183 8/245/184 136/246/185 137/247/186
f 139/251/190 16/248/187 18/249/188 138/250/189
f 4/253/192 140/254/193 141/255/194 1/252/191
f 142/258/197 143/259/198 26/256/195 28/257/196
f 12/42/22 14/260/199 144/261/200 35/43/23
f 145/263/202 132/236/175 22/239/178 24/262/201
f 1/252/191 141/255/194 134/242/181 34/241/180
f 8/245/184 10/41/21 36/44/24 136/246/185
f 138/250/189 18/249/188 20/238/177 131/235/174
f 135/243/182 142/258/197 28/257/196 30/240/179
f 4/253/192 6/244/183 137/247/186 140/254/193
f 14/260/199 16/248/187 139/251/190 144/261/200
f 143/259/198 145/263/202 24/262/201 26/256/195
f 137/247/186 136/246/185 133/237/176
f 132/236/175 145/263/202 133/237/176
f 136/246/185 36/44/24 133/237/176
f 145/263/202 143/259/198 133/237/176
f 36/44/24 35/43/23 133/237/176
f 143/259/198 142/258/197 133/237/176
f 35/43/23 144/261/200 133/237/176
f 142/258/197 135/243/182 133/237/176
f 144/261/200 139/251/190 133/237/176
f 135/243/182 134/242/181 133/237/176
f 139/251/190 138/250/189 133/237/176
f 141/255/194 140/254/193 133/237/176
f 134/242/181 141/255/194 133/237/176
f 138/250/189 131/235/174 133/237/176
f 140/254/193 137/247/186 133/237/176
