# File produced by Open Asset Import Library (http://www.assimp.sf.net)
# (assimp v3.1.22885447)

mtllib Carta%20restaurante.mtl

# vertex positions
v -91.872978 100.000000 -0.000016
v -100.000000 100.000000 -0.000016
v -31.092415 100.000015 99.999992
v -22.965393 100.000015 99.999992
v -22.965393 -99.999992 100.000015
v -31.092415 -99.999992 100.000015
v -100.000000 -100.000000 0.000016
v -31.092415 99.999992 -100.000015
v -31.092415 -100.000015 -99.999992
v -91.872978 -100.000000 0.000016
v -22.965393 99.999992 -100.000015
v -22.965393 -100.000015 -99.999992

# UV coordinates
vt 0.064241 0.797641
vt 0.051380 0.806503
vt 0.051380 0.573104
vt 0.064241 0.564241
vt 0.916020 0.564241
vt 0.916020 0.948619
vt 0.900400 0.948619
vt 0.900401 0.564241
vt 0.396402 0.051380
vt 0.780780 0.051380
vt 0.780780 0.284779
vt 0.396402 0.284779
vt 0.461482 0.806503
vt 0.448620 0.797641
vt 0.448620 0.564241
vt 0.461482 0.573104
vt 0.883540 0.435758
vt 0.883540 0.051380
vt 0.899159 0.051380
vt 0.899160 0.435758
vt 0.051380 0.448620
vt 0.051380 0.064241
vt 0.284779 0.064241
vt 0.284779 0.448620
vt 0.060242 0.461482
vt 0.293642 0.461482
vt 0.797641 0.564241
vt 0.797641 0.948620
vt 0.564241 0.948620
vt 0.564241 0.564241
vt 0.060242 0.051380
vt 0.293642 0.051380

# vertex normals
vn 0.000000 1.000000 -0.000000
vn 0.000000 0.000000 1.000000
vn -0.823436 -0.000000 -0.567410
vn 0.000000 -1.000000 0.000000
vn 0.823436 -0.000000 -0.567410
vn 0.000000 -0.000000 -1.000000
vn 0.823436 0.000000 0.567410
vn -0.823436 0.000000 0.567410

# Mesh
g Cube
usemtl Material
f 3/3/1 4/4/1 1/1/1 2/2/1
f 5/5/2 4/6/2 3/7/2 6/8/2
f 8/11/3 9/12/3 7/9/3 2/10/3
f 5/15/4 6/16/4 7/13/4 10/14/4
f 4/4/5 5/15/5 10/14/5 1/1/5
f 11/19/6 12/20/6 9/17/6 8/18/6
f 12/21/7 11/22/7 1/23/7 10/24/7
f 9/25/4 12/21/4 10/24/4 7/26/4
f 6/27/8 3/28/8 2/29/8 7/30/8
f 11/22/1 8/31/1 2/32/1 1/23/1
