# File produced by Open Asset Import Library (http://www.assimp.sf.net)
# (assimp v3.1.22885447)

mtllib CAMINO%20PARKING.mtl

# vertex positions
v 3079.995850 701.820801 7365.693848
v 3079.995850 932.094421 7365.693848
v 3079.995850 932.094299 6727.654297
v 3079.995850 701.820679 6727.654297
v 3854.768555 932.094910 10583.613281
v 3079.995850 932.094910 10583.613281
v 3079.995850 932.095093 11567.716797
v 3854.768555 932.095093 11567.716797
v 3854.768555 932.094421 7365.693848
v 3079.995850 932.094482 8003.733398
v 3854.768555 932.094482 8003.733398
v 7239.212891 932.094421 7365.693848
v 6030.970215 932.094421 7365.693848
v 6030.970215 932.094482 8003.733398
v 7239.212891 932.094482 8003.733398
v 3854.768555 701.820801 7365.693848
v 6030.970215 701.820801 7365.693848
v 6030.970215 701.820923 8003.733398
v 3854.768555 701.820923 8003.733398
v 3854.768555 701.820679 6727.654297
v 3854.768555 932.094299 6727.654297
v 6030.970215 932.094299 6727.654297
v 6030.970215 701.820679 6727.654297
v 7239.212891 701.820801 7365.693848
v 7239.212891 701.820923 8003.733398
v 6030.970215 932.093384 1160.209473
v 7239.212891 932.093384 1160.209473
v 7239.212891 932.093201 -21.676758
v 6030.970215 932.093201 -21.676758
v 7234.689941 701.822510 17592.445313
v 7234.689941 932.096069 17592.445313
v 6030.291016 932.096069 17588.388672
v 6030.291016 701.822510 17588.388672
v 6030.970215 701.822266 16483.556641
v 7239.212891 701.822266 16483.556641
v 7239.212891 932.095886 16483.556641
v 6030.970215 932.095886 16483.556641
v 6030.970215 701.819580 -21.676758
v 7239.212891 701.819580 -21.676758
v 7239.212891 701.819824 1160.209473
v 6030.970215 701.819824 1160.209473
v -5861.224609 932.093384 1162.235352
v -5861.224609 701.819824 1162.235352
v 7239.212891 701.820679 6727.654297
v 7239.212891 932.094299 6727.654297
v 3079.995850 701.820923 8003.733398
v 3854.768555 701.820618 6160.417969
v 3079.995850 701.820618 6160.417969
v 3079.995850 701.820496 5328.949219
v 3854.768555 701.820496 5328.949219
v 3854.768555 701.821533 11567.716797
v 3079.995850 701.821533 11567.716797
v 4378.336426 932.095093 11567.716797
v 4378.336426 932.094910 10583.613281
v -1859.939453 932.095093 11567.716797
v -1844.611816 932.094910 10532.388672
v -2730.309570 932.094910 10532.388672
v -2741.656250 932.095093 11567.716797
v 3079.995850 701.821350 10583.613281
v 3854.768555 701.821350 10583.613281
v -2730.309570 701.821350 10532.388672
v -2741.656250 701.821533 11567.716797
v -1859.939453 701.821533 11567.716797
v -1844.611816 701.821350 10532.388672
v 3079.995850 932.094055 5328.949219
v 3854.768555 932.094055 5328.949219
v 4577.665527 701.820496 5328.949219
v 4577.665527 701.820618 6160.417969
v 3079.995850 932.094177 6160.417969
v 3854.768555 932.094177 6160.417969
v -1829.284180 932.094055 5328.949219
v -1829.284180 701.820496 5328.949219
v -2718.961914 701.820496 5328.949219
v -2718.961914 932.094055 5328.949219
v 4577.665527 932.094177 6160.417969
v 4577.665527 932.094055 5328.949219
v -2718.961914 701.820618 6160.417969
v -2718.961914 932.094177 6160.417969
v -1829.284180 932.094177 6160.417969
v -1839.886719 932.094727 9184.627930
v -2726.811523 932.094727 9184.627930
v -1829.284180 701.820618 6160.417969
v 4378.336426 701.821350 10583.613281
v 4378.336426 701.821533 11567.716797
v -1839.886719 701.821106 9184.627930
v -2726.811523 701.821106 9184.627930
v -7293.883789 932.094910 10520.544922
v -7290.385742 932.094666 9172.784180
v -8936.005859 932.094666 9169.117188
v -8939.503906 932.094910 10516.877930
v -7290.385742 701.821106 9172.784180
v -8936.005859 701.821106 9169.117188
v -7293.883789 701.821350 10520.544922
v -8939.503906 701.821350 10516.877930
v -5880.752930 701.821350 10524.212891
v -5877.254883 701.821106 9176.451172
v -5880.752930 932.094910 10524.212891
v -5877.254883 932.094666 9176.451172
v -5890.686523 932.095886 16476.861328
v -7303.817383 932.095886 16473.193359
v -7306.393555 932.096069 17556.580078
v -5893.262207 932.096069 17560.248047
v -7274.354980 932.093384 1158.568848
v -5858.975098 932.093201 -28.230469
v -7272.106445 932.093201 -31.897461
v -5858.975098 701.819580 -28.230469
v -7272.106445 701.819580 -31.897461
v -7274.354980 701.819824 1158.568848
v -5893.262207 701.822510 17560.248047
v -7306.393555 701.822510 17556.580078
v -7303.817383 701.822266 16473.193359
v -5890.686523 701.822266 16476.861328

# UV coordinates
vt 0.102815 0.462116
vt 0.147293 0.421519
vt 0.151668 0.427572
vt 0.117242 0.475542
vt 0.535722 0.166885
vt 0.535722 0.161775
vt 0.557054 0.161775
vt 0.557054 0.166885
vt 0.178540 0.590451
vt 0.173430 0.590451
vt 0.173430 0.576621
vt 0.178540 0.576621
vt 0.578195 0.515577
vt 0.586163 0.515577
vt 0.586163 0.529408
vt 0.578195 0.529408
vt 0.568673 0.302461
vt 0.568673 0.316814
vt 0.554842 0.316814
vt 0.554842 0.302461
vt 0.301679 0.373095
vt 0.356359 0.373095
vt 0.356359 0.387447
vt 0.301679 0.387447
vt 0.566442 0.363346
vt 0.566442 0.355377
vt 0.580272 0.355377
vt 0.580272 0.363346
vt 0.490018 0.541196
vt 0.482049 0.541196
vt 0.482049 0.515577
vt 0.490018 0.515577
vt 0.011815 0.480005
vt 0.066495 0.480005
vt 0.066495 0.487948
vt 0.011815 0.487948
vt 0.554565 0.539612
vt 0.546597 0.539614
vt 0.546622 0.515577
vt 0.554565 0.515664
vt 0.535722 0.114109
vt 0.543691 0.114111
vt 0.543691 0.138059
vt 0.535747 0.138145
vt 0.011815 0.455968
vt 0.066495 0.455968
vt 0.011815 0.090231
vt 0.066495 0.090231
vt 0.066495 0.098199
vt 0.011815 0.098199
vt 0.066495 0.123818
vt 0.011815 0.123818
vt 0.257548 0.474197
vt 0.257548 0.482165
vt 0.231929 0.482165
vt 0.231929 0.474197
vt 0.301679 0.508128
vt 0.356359 0.508128
vt 0.356359 0.586558
vt 0.301679 0.586558
vt 0.567320 0.122078
vt 0.567320 0.114109
vt 0.581150 0.114109
vt 0.581150 0.122078
vt 0.011815 0.258329
vt 0.011815 0.244499
vt 0.066495 0.244498
vt 0.066495 0.258329
vt 0.066495 0.272159
vt 0.011815 0.272159
vt 0.568673 0.249368
vt 0.568673 0.263720
vt 0.554842 0.263720
vt 0.554842 0.249368
vt 0.588652 0.166885
vt 0.580683 0.166885
vt 0.580683 0.153055
vt 0.588652 0.153055
vt 0.273478 0.576621
vt 0.273478 0.581730
vt 0.259648 0.581730
vt 0.259648 0.576621
vt 0.090901 0.446728
vt 0.143181 0.414963
vt 0.551014 0.462663
vt 0.565367 0.462663
vt 0.565367 0.476493
vt 0.551014 0.476493
vt 0.207279 0.590451
vt 0.202169 0.590451
vt 0.202169 0.576621
vt 0.207279 0.576621
vt 0.149801 0.576621
vt 0.149801 0.581730
vt 0.131777 0.581730
vt 0.131777 0.576621
vt 0.236018 0.590451
vt 0.230909 0.590451
vt 0.230909 0.576621
vt 0.236018 0.576621
vt 0.553181 0.406656
vt 0.567533 0.406656
vt 0.567533 0.420486
vt 0.553181 0.420486
vt 0.230299 0.211664
vt 0.278049 0.259995
vt 0.262512 0.273011
vt 0.220344 0.217549
vt 0.162117 0.243672
vt 0.135075 0.288064
vt 0.130363 0.285111
vt 0.159243 0.240495
vt 0.546597 0.563243
vt 0.567928 0.563243
vt 0.567928 0.566696
vt 0.546597 0.566696
vt 0.555180 0.034257
vt 0.555154 0.011815
vt 0.560996 0.011834
vt 0.560996 0.034276
vt 0.379989 0.560068
vt 0.379989 0.554958
vt 0.401320 0.554958
vt 0.401320 0.560068
vt 0.512093 0.170031
vt 0.506983 0.170031
vt 0.506983 0.114109
vt 0.512093 0.114109
vt 0.090125 0.339047
vt 0.134182 0.395469
vt 0.178086 0.302201
vt 0.177317 0.241518
vt 0.498575 0.067736
vt 0.493466 0.067736
vt 0.493466 0.011815
vt 0.498575 0.011815
vt 0.095200 0.220095
vt 0.155597 0.209530
vt 0.146177 0.222123
vt 0.099214 0.240544
vt 0.148246 0.226136
vt 0.102231 0.247617
vt 0.555154 0.080367
vt 0.555180 0.057925
vt 0.560996 0.057906
vt 0.560996 0.080348
vt 0.301679 0.328131
vt 0.356359 0.328131
vt 0.356359 0.333241
vt 0.301679 0.333241
vt 0.589393 0.011815
vt 0.589393 0.029838
vt 0.584625 0.029838
vt 0.584625 0.011815
vt 0.108148 0.576621
vt 0.108148 0.581730
vt 0.090125 0.581730
vt 0.090125 0.576621
vt 0.356359 0.295754
vt 0.301679 0.295754
vt 0.301679 0.289886
vt 0.356359 0.289886
vt 0.155294 0.431533
vt 0.132094 0.485159
vt 0.437245 0.584455
vt 0.437245 0.589565
vt 0.424950 0.589565
vt 0.424950 0.584455
vt 0.301679 0.360799
vt 0.356359 0.360799
vt 0.392284 0.583698
vt 0.392284 0.588807
vt 0.379989 0.588807
vt 0.379989 0.583698
vt 0.356359 0.356032
vt 0.301679 0.356032
vt 0.301679 0.338009
vt 0.356359 0.338009
vt 0.584625 0.071490
vt 0.584625 0.053467
vt 0.589393 0.053467
vt 0.589393 0.071490
vt 0.301679 0.271863
vt 0.356359 0.271863
vt 0.569041 0.196520
vt 0.569041 0.214543
vt 0.563173 0.214543
vt 0.563173 0.196520
vt 0.523702 0.406656
vt 0.529551 0.406660
vt 0.529551 0.435875
vt 0.523710 0.435870
vt 0.424950 0.554958
vt 0.442973 0.554958
vt 0.442973 0.560826
vt 0.424950 0.560826
vt 0.174186 0.244833
vt 0.172943 0.302178
vt 0.138162 0.289918
vt 0.164079 0.245765
vt 0.503381 0.568279
vt 0.482049 0.568279
vt 0.482049 0.564826
vt 0.503381 0.564826
vt 0.500072 0.439033
vt 0.482049 0.439033
vt 0.482049 0.406656
vt 0.500072 0.406656
vt 0.168284 0.424582
vt 0.208299 0.489795
vt 0.509863 0.355377
vt 0.509863 0.373400
vt 0.477486 0.373400
vt 0.477486 0.355377
vt 0.232025 0.449603
vt 0.231929 0.428272
vt 0.264508 0.428125
vt 0.264508 0.450567
vt 0.161096 0.325831
vt 0.142816 0.391342
vt 0.477486 0.225592
vt 0.477582 0.204260
vt 0.510065 0.203296
vt 0.510065 0.225738
vt 0.483353 0.179662
vt 0.477486 0.179667
vt 0.477504 0.114114
vt 0.483353 0.114109
vt 0.527385 0.462663
vt 0.527385 0.491877
vt 0.516532 0.491948
vt 0.516532 0.462734
vt 0.208299 0.356687
vt 0.156127 0.407916
vt 0.539544 0.225734
vt 0.533694 0.225738
vt 0.533703 0.196524
vt 0.539544 0.196520
vt 0.301679 0.206310
vt 0.356359 0.206310
vt 0.412938 0.317284
vt 0.418806 0.317289
vt 0.418806 0.382842
vt 0.412956 0.382837
vt 0.066495 0.779343
vt 0.011815 0.779343
vt 0.011815 0.768490
vt 0.066495 0.768490
vt 0.011815 0.728422
vt 0.066495 0.728422
vt 0.066495 0.739276
vt 0.011815 0.739276
vt 0.492902 0.462734
vt 0.492902 0.491948
vt 0.482049 0.491877
vt 0.482049 0.462663
vt 0.498263 0.302533
vt 0.498263 0.331748
vt 0.477486 0.331587
vt 0.477486 0.302373
vt 0.090125 0.196284
vt 0.148612 0.191942
vt 0.301679 0.185532
vt 0.356359 0.185532
vt 0.477486 0.278743
vt 0.477486 0.249529
vt 0.498263 0.249368
vt 0.498263 0.278582
vt 0.521893 0.331675
vt 0.521893 0.302461
vt 0.531213 0.302533
vt 0.531213 0.331748
vt 0.542812 0.378861
vt 0.533493 0.378933
vt 0.533493 0.355450
vt 0.542812 0.355377
vt 0.522205 0.011889
vt 0.531525 0.011815
vt 0.531525 0.037619
vt 0.522205 0.037694
vt 0.531213 0.249368
vt 0.531213 0.278582
vt 0.521893 0.278654
vt 0.521893 0.249440
vt 0.066495 0.988185
vt 0.011815 0.988185
vt 0.011815 0.978865
vt 0.066495 0.978865
vt 0.379989 0.505524
vt 0.434669 0.505524
vt 0.434669 0.531329
vt 0.379989 0.531329
vt 0.522205 0.061323
vt 0.531525 0.061397
vt 0.531525 0.087202
vt 0.522205 0.087128
vt 0.011815 0.953060
vt 0.066495 0.953060
vt 0.011815 0.566588
vt 0.066495 0.566588
vt 0.066495 0.575908
vt 0.011815 0.575908
vt 0.066495 0.599392
vt 0.011815 0.599392
vt 0.522967 0.539134
vt 0.513647 0.539061
vt 0.513647 0.515577
vt 0.522967 0.515650
vt 0.379989 0.209235
vt 0.389309 0.209309
vt 0.389309 0.383026
vt 0.379989 0.382953
vt 0.301679 0.011815
vt 0.356359 0.011815
vt 0.379989 0.011889
vt 0.389309 0.011815
vt 0.389309 0.185532
vt 0.379989 0.185606
vt 0.445888 0.114109
vt 0.453856 0.114109
vt 0.453856 0.234790
vt 0.445888 0.234790
vt 0.445888 0.258419
vt 0.453856 0.258419
vt 0.453856 0.379100
vt 0.445888 0.379100
vt 0.380004 0.481798
vt 0.379989 0.456179
vt 0.458420 0.456090
vt 0.458420 0.481895
vt 0.011815 0.011815
vt 0.066495 0.011815
vt 0.458420 0.406700
vt 0.458420 0.432319
vt 0.380004 0.432461
vt 0.379989 0.406656
vt 0.090125 0.552991
vt 0.090125 0.545023
vt 0.273934 0.545023
vt 0.273934 0.552991
vt 0.090125 0.521393
vt 0.090125 0.513425
vt 0.273934 0.513425
vt 0.273934 0.521393
vt 0.215771 0.087952
vt 0.278049 0.024509
vt 0.412938 0.011815
vt 0.422258 0.011890
vt 0.422258 0.140920
vt 0.412938 0.140845
vt 0.114445 0.011815
vt 0.153262 0.095062
vt 0.412938 0.164624
vt 0.422258 0.164549
vt 0.422258 0.293580
vt 0.412938 0.293654
vt 0.232394 0.325857
vt 0.255877 0.325831
vt 0.255877 0.404456
vt 0.231929 0.404496
vt 0.469836 0.090480
vt 0.446352 0.090453
vt 0.445888 0.011815
vt 0.469836 0.011854

# vertex normals
vn -1.000000 0.000000 0.000000
vn 0.000000 1.000000 -0.000000
vn 0.000000 -1.000000 0.000000
vn 0.000000 -0.000000 -1.000000
vn -0.003368 0.000000 0.999994
vn -0.000000 -1.000000 0.000000
vn 0.999992 0.000000 0.004079
vn 1.000000 0.000000 0.000000
vn 0.000170 0.000000 1.000000
vn 0.000000 0.000000 1.000000
vn -0.999940 -0.000000 -0.010959
vn 0.010401 -0.000000 -0.999946
vn 0.999994 0.000000 0.003505
vn 0.999994 0.000000 0.003506
vn -0.999997 -0.000000 -0.002596
vn 0.002229 -0.000000 -0.999998
vn -0.002229 0.000000 0.999998
vn 0.000000 -1.000000 0.000000
vn -0.002595 0.000000 0.999997
vn 0.002595 -0.000000 -0.999997
vn 0.000000 -1.000000 0.000000
vn 0.000000 1.000000 -0.000000
vn 0.002595 -0.000000 -0.999997
vn 0.999998 0.000000 0.001889
vn -0.000000 -1.000000 0.000000
vn -0.999998 -0.000000 -0.001889
vn -0.002596 0.000000 0.999997
vn -0.999997 -0.000000 -0.002378
vn -0.002360 0.000000 0.999997
vn -0.000000 -1.000000 0.000000
vn -0.999998 -0.000000 -0.002000
vn 0.000000 -1.000000 0.000000
vn 0.999998 0.000000 0.002000
vn -0.000000 -1.000000 0.000000
vn 0.000551 -0.000000 -1.000000
vn -0.999997 -0.000000 -0.002596
vn 0.000000 -1.000000 0.000000
vn 0.999999 0.000000 0.001669
vn -0.999999 -0.000000 -0.001669
vn 0.000561 -0.000000 -1.000000
vn 0.000000 -1.000000 0.000000

# Mesh
g Cube.089
usemtl DefaultMaterial
f 2/2/1 3/3/1 4/4/1 1/1/1
f 8/8/2 5/5/2 6/6/2 7/7/2
f 11/12/2 9/9/2 2/10/2 10/11/2
f 15/16/2 12/13/2 13/14/2 14/15/2
f 17/18/3 18/19/3 19/20/3 16/17/3
f 22/23/4 23/24/4 20/21/4 21/22/4
f 24/26/3 25/27/3 18/28/3 17/25/3
f 27/30/2 28/31/2 29/32/2 26/29/2
f 30/33/5 31/34/5 32/35/5 33/36/5
f 35/38/6 30/39/6 33/40/6 34/37/6
f 31/44/2 36/41/2 37/42/2 32/43/2
f 35/45/7 36/46/7 31/34/7 30/33/7
f 28/49/4 39/50/4 38/47/4 29/48/4
f 28/49/8 27/51/8 40/52/8 39/50/8
f 39/56/3 40/53/3 41/54/3 38/55/3
f 41/57/9 26/58/9 42/59/9 43/60/9
f 44/62/3 24/63/3 17/64/3 23/61/3
f 12/68/8 15/69/8 25/70/8 24/65/8 44/66/8 45/67/8
f 23/72/3 17/73/3 16/74/3 20/71/3
f 12/78/2 45/75/2 22/76/2 13/77/2
f 9/82/2 21/79/2 3/80/2 2/81/2
f 10/84/1 2/2/1 1/1/1 46/83/1
f 13/88/2 22/85/2 21/86/2 9/87/2
f 20/90/3 16/91/3 1/92/3 4/89/3
f 50/96/3 47/93/3 48/94/3 49/95/3
f 16/98/3 19/99/3 46/100/3 1/97/3
f 14/104/2 13/101/2 9/102/2 11/103/2
f 18/105/10 14/106/10 11/107/10 19/108/10
f 51/109/10 8/110/10 7/111/10 52/112/10
f 53/115/2 54/116/2 5/113/2 8/114/2
f 55/117/2 56/118/2 57/119/2 58/120/2
f 60/122/3 51/123/3 52/124/3 59/121/3
f 19/126/3 60/127/3 59/128/3 46/125/3
f 6/130/1 10/84/1 46/83/1 59/129/1
f 11/107/8 5/131/8 60/132/8 19/108/8
f 5/136/2 11/133/2 10/134/2 6/135/2
f 57/137/11 61/138/11 62/139/11 58/140/11
f 63/141/10 55/142/10 58/140/10 62/139/10
f 64/143/3 63/144/3 62/145/3 61/146/3
f 66/149/4 50/150/4 49/147/4 65/148/4
f 67/153/3 68/154/3 47/151/3 50/152/3
f 70/156/2 66/157/2 65/158/2 69/155/2
f 71/159/4 72/160/4 73/161/4 74/162/4
f 3/3/1 69/163/1 48/164/1 4/4/1
f 21/166/2 70/167/2 69/168/2 3/165/2
f 70/170/8 21/22/8 20/21/8 47/169/8
f 47/174/3 20/171/3 4/172/3 48/173/3
f 76/178/8 75/175/8 68/176/8 67/177/8
f 76/178/4 67/177/4 50/150/4 66/149/4
f 68/176/10 75/175/10 70/170/10 47/169/10
f 75/181/2 76/182/2 66/179/2 70/180/2
f 78/184/1 74/162/1 73/161/1 77/183/1
f 79/185/2 71/186/2 74/187/2 78/188/2
f 56/192/2 80/189/2 81/190/2 57/191/2
f 72/193/3 82/194/3 77/195/3 73/196/3
f 54/198/8 53/199/8 84/200/8 83/197/8
f 84/200/10 53/199/10 8/110/10 51/109/10
f 54/198/4 83/197/4 60/132/4 5/131/4
f 83/203/3 84/204/3 51/201/3 60/202/3
f 49/205/3 48/206/3 82/207/3 72/208/3
f 48/164/10 69/163/10 79/209/10 82/210/10
f 69/211/2 65/212/2 71/213/2 79/214/2
f 65/148/4 49/147/4 72/160/4 71/159/4
f 59/215/3 52/216/3 63/217/3 64/218/3
f 52/112/10 7/111/10 55/142/10 63/141/10
f 6/130/12 59/129/12 64/219/12 56/220/12
f 7/221/2 6/222/2 56/223/2 55/224/2
f 82/226/3 85/227/3 86/228/3 77/225/3
f 87/229/2 88/230/2 89/231/2 90/232/2
f 85/233/13 80/234/13 56/220/13 64/219/13
f 85/236/3 64/237/3 61/238/3 86/235/3
f 82/210/14 79/209/14 80/234/14 85/233/14
f 78/184/15 77/183/15 86/239/15 81/240/15
f 80/244/2 79/241/2 78/242/2 81/243/2
f 88/245/16 91/246/16 92/247/16 89/248/16
f 93/249/17 87/250/17 90/251/17 94/252/17
f 91/253/18 93/254/18 94/255/18 92/256/18
f 86/257/3 61/258/3 95/259/3 96/260/3
f 61/138/19 57/137/19 97/261/19 95/262/19
f 81/240/20 86/239/20 96/263/20 98/264/20
f 57/265/2 81/266/2 98/267/2 97/268/2
f 96/269/21 95/270/21 93/271/21 91/272/21
f 102/276/2 99/273/2 100/274/2 101/275/2
f 42/278/2 104/279/2 105/280/2 103/277/2
f 97/281/22 98/282/22 88/283/22 87/284/22
f 104/285/23 106/286/23 107/287/23 105/288/23
f 106/291/24 104/292/24 42/289/24 43/290/24
f 106/296/25 43/293/25 108/294/25 107/295/25
f 105/288/26 107/287/26 108/297/26 103/298/26
f 109/299/27 102/300/27 101/301/27 110/302/27
f 100/303/28 111/304/28 110/302/28 101/301/28
f 33/36/29 32/35/29 102/300/29 109/299/29
f 112/306/30 109/307/30 110/308/30 111/305/30
f 103/298/31 108/297/31 91/246/31 88/245/31
f 43/312/32 96/309/32 91/310/32 108/311/32
f 43/313/33 42/314/33 98/264/33 96/263/33
f 98/316/2 42/317/2 103/318/2 88/315/2
f 22/23/1 26/58/1 41/57/1 23/24/1
f 40/322/3 44/319/3 23/320/3 41/321/3
f 27/51/8 45/67/8 44/66/8 40/52/8
f 45/324/2 27/325/2 26/326/2 22/323/2
f 38/327/34 41/328/34 43/329/34 106/330/34
f 29/48/35 38/47/35 106/331/35 104/332/35
f 26/333/2 29/334/2 104/335/2 42/336/2
f 89/248/36 92/247/36 94/252/36 90/251/36
f 15/69/8 36/46/8 35/45/8 25/70/8
f 36/340/2 15/337/2 14/338/2 37/339/2
f 25/342/3 35/343/3 34/344/3 18/341/3
f 37/346/1 14/106/1 18/105/1 34/345/1
f 95/348/37 112/349/37 111/350/37 93/347/37
f 95/262/38 97/261/38 99/351/38 112/352/38
f 87/250/39 93/249/39 111/304/39 100/303/39
f 99/356/2 97/353/2 87/354/2 100/355/2
f 37/346/40 34/345/40 112/352/40 99/351/40
f 34/359/41 33/360/41 109/357/41 112/358/41
f 32/363/2 37/364/2 99/361/2 102/362/2
