# File produced by Open Asset Import Library (http://www.assimp.sf.net)
# (assimp v3.1.22885447)

mtllib Caja%20servilletas.mtl

# vertex positions
v -146.094543 -90.928780 153.341446
v -146.094543 -58.268639 153.341446
v -146.094543 -58.268669 -0.112025
v -146.094543 -90.928795 -0.112020
v -119.191368 252.963226 160.263641
v -119.191368 283.351746 160.263641
v -136.965881 272.360046 160.263641
v -140.135788 252.963226 160.263641
v -119.191368 252.963165 -160.487793
v -119.191368 279.715271 -160.487793
v -59.743996 295.542572 -160.487793
v -59.743996 252.963165 -160.487793
v 57.164940 -90.928780 160.263702
v -0.296606 -90.928780 160.263702
v 55.479198 -90.928795 96.452843
v 66.762634 -90.928795 96.452843
v 114.626488 252.963226 160.263641
v 114.626488 283.378357 160.263641
v 57.164940 299.174805 160.263641
v 57.164940 252.963226 160.263641
v 145.501343 -90.928841 -153.565475
v 145.501343 -58.268700 -153.565475
v 145.501343 -58.268669 -0.112025
v 145.501343 -90.928795 -0.112020
v -0.296606 252.963165 -160.487793
v -0.296606 304.168365 -160.487793
v 57.164940 295.559723 -160.487793
v 57.164940 252.963165 -160.487793
v -0.296606 -90.928795 -0.112020
v -56.742287 -90.928795 95.686440
v -56.742287 -90.928795 64.465225
v -0.296606 252.963226 160.263641
v -0.296606 307.780823 160.263641
v -59.743996 299.162659 160.263641
v -59.743996 252.963226 160.263641
v -0.296606 316.603943 -0.112087
v -59.743996 308.004395 -0.112085
v -59.743996 308.004395 151.419373
v -0.296606 316.603943 151.419373
v -0.296606 -90.928841 -160.487732
v -55.835545 -90.928795 -63.651894
v -55.835545 -90.928825 -96.947861
v -119.191368 292.233398 -148.022476
v -141.975449 278.181335 -148.643326
v -141.975449 278.181335 -0.112080
v -119.191368 292.233429 -0.112083
v 55.272255 -90.928825 -96.913620
v 55.272255 -90.928795 -63.686123
v 138.706680 278.181396 151.901794
v 130.676025 274.931030 160.263641
v 134.267441 252.963226 160.263641
v 142.825806 252.963226 151.901794
v -146.094543 252.963165 -0.112076
v -146.094543 252.963165 -153.565536
v -78.996498 -90.928795 95.686440
v -84.032135 -90.928795 95.686440
v -84.032135 -98.316307 95.686440
v -78.996498 -98.316307 95.686440
v 55.479198 -90.928795 63.698845
v 114.626488 -90.928795 -0.112020
v 84.108818 -90.928795 63.698845
v 78.046082 -90.928795 63.698845
v 134.276245 -90.928780 160.263702
v 134.274094 -58.268639 160.263702
v 114.626488 -58.268639 160.263702
v 114.626488 -90.928780 160.263702
v 84.108818 -90.928795 96.452843
v 84.108818 -98.316307 96.452843
v 84.108818 -98.316307 63.698845
v 114.626488 -90.928841 -160.487732
v 139.547256 -90.928841 -160.487732
v 141.073776 -90.928841 -155.887314
v 84.315750 -90.928825 -96.913620
v 78.165359 -90.928825 -96.913620
v 57.164940 -90.928795 -0.112020
v 66.718811 -90.928795 -63.686123
v 114.626488 -58.268700 -160.487732
v 139.546112 -58.268700 -160.487732
v -67.702087 -90.928825 -96.947861
v -55.835545 -98.316338 -96.947861
v -67.702087 -98.316338 -96.947861
v -119.191368 -90.928780 160.263702
v -140.140472 -90.928780 160.263702
v -141.669785 -90.928780 155.659637
v -59.743996 -90.928795 -0.112020
v -67.869408 -90.928795 64.465225
v -119.191368 -58.268639 160.263702
v -140.139313 -58.268639 160.263702
v 84.315750 -98.316338 -96.913620
v 78.165359 -98.316338 -96.913620
v -141.666885 -90.928841 -155.887436
v -140.140472 -90.928841 -160.487732
v -119.191368 -90.928841 -160.487732
v -79.568626 -90.928825 -96.947861
v -84.938881 -90.928825 -96.947861
v -119.191368 -90.928795 -0.112020
v -84.938881 -90.928795 -63.651894
v -79.568626 -90.928795 -63.651894
v -59.743996 -90.928841 -160.487732
v 78.046082 -98.316307 63.698845
v 78.046082 -98.316307 96.452843
v 84.315750 -98.316307 -63.686123
v 78.165359 -98.316307 -63.686123
v -67.869408 -98.316307 64.465225
v -56.742287 -98.316307 64.465225
v -56.742287 -98.316307 95.686440
v -67.869408 -98.316307 95.686440
v -55.835545 -98.316307 -63.651894
v -67.702087 -98.316307 -63.651894
v 55.272255 -98.316338 -96.913620
v 55.272255 -98.316307 -63.686123
v -84.938881 -98.316338 -96.947861
v -84.938881 -98.316307 -63.651894
v 66.718811 -98.316307 -63.686123
v -79.568626 -98.316307 -63.651894
v 55.479198 -98.316307 96.452843
v 66.762634 -98.316307 96.452843
v 84.315750 -90.928795 -63.686123
v 55.479198 -98.316307 63.698845
v -84.032135 -90.928795 64.465225
v -84.032135 -98.316307 64.465225
v -146.094543 -58.268700 -153.565475
v 114.626488 252.963165 -160.487793
v 139.542587 252.963165 -160.487793
v -113.442802 -50.668449 148.569504
v -113.442802 245.363037 148.569443
v -59.743996 -58.268700 -160.487732
v -0.296606 -58.268700 -160.487732
v -140.139313 -58.268700 -160.487732
v -140.135788 252.963165 -160.487793
v -119.191368 -58.268700 -160.487732
v -146.094543 252.963226 153.341385
v 57.164940 -58.268700 -160.487732
v 78.046082 -90.928795 96.452843
v 78.165359 -90.928795 -63.686123
v 66.762634 -90.928795 63.698845
v 66.762634 -98.316307 63.698845
v 66.718811 -98.316338 -96.913620
v 66.718811 -90.928825 -96.913620
v 57.164940 -90.928841 -160.487732
v 145.501343 252.963165 -153.565536
v 141.382217 278.181335 -148.643326
v 141.382217 278.181335 -0.112080
v 145.501343 252.963165 -0.112076
v 142.825806 -58.268639 151.901871
v 142.825806 -90.928780 151.901871
v 114.626488 279.752808 -160.487793
v 137.097336 267.925598 -160.487793
v 57.164940 -58.268639 160.263702
v 108.955521 -50.668449 148.569504
v 54.300358 -50.668449 148.569504
v -67.702087 -90.928795 -63.651894
v -78.996498 -90.928795 64.465225
v -78.996498 -98.316307 64.465225
v -79.568626 -98.316338 -96.947861
v -141.975449 274.337372 152.975067
v -59.743996 -90.928780 160.263702
v -67.869408 -90.928795 95.686440
v -137.628937 268.302673 -160.487793
v -119.191368 292.233459 151.419373
v -146.094543 -90.928841 -153.565475
v -59.743996 -58.268639 160.263702
v 134.479874 -90.928780 156.277496
v -59.743996 308.004364 -148.022476
v -0.296606 -58.268639 160.263702
v 54.300358 245.363037 148.569443
v -0.354799 245.363037 148.569443
v -0.354799 -50.668449 148.569504
v -56.898804 -50.668449 148.569504
v -56.898804 245.363037 148.569443
v 108.955521 245.363037 148.569443
v 114.626488 292.233398 -148.022476
v 57.164940 308.004364 -148.022476
v 57.164940 308.004395 -0.112085
v 114.626488 292.233429 -0.112083
v 114.626488 292.233459 151.419373
v -0.296606 316.603882 -148.022476
v 57.164940 308.004395 151.419373

# UV coordinates
vt 0.108586 0.925448
vt 0.106345 0.888325
vt 0.272924 0.879440
vt 0.275367 0.915639
vt 0.039813 0.523584
vt 0.033299 0.488366
vt 0.059720 0.496653
vt 0.069207 0.519041
vt 0.554084 0.292550
vt 0.530349 0.292550
vt 0.516307 0.230935
vt 0.554084 0.230935
vt 0.791257 0.833334
vt 0.850813 0.833334
vt 0.793004 0.889947
vt 0.781309 0.889947
vt 0.050769 0.190500
vt 0.081567 0.194323
vt 0.087558 0.261929
vt 0.042622 0.257730
vt 0.440795 0.167522
vt 0.437140 0.165709
vt 0.445582 0.149146
vt 0.449139 0.150963
vt 0.554084 0.169321
vt 0.508655 0.169321
vt 0.516292 0.109765
vt 0.554084 0.109765
vt 0.820054 0.505308
vt 0.820054 0.363023
vt 0.878558 0.420316
vt 0.878558 0.448015
vt 0.038426 0.325078
vt 0.091511 0.326193
vt 0.086346 0.392345
vt 0.040207 0.394832
vt 0.248599 0.324407
vt 0.248580 0.395607
vt 0.098091 0.392146
vt 0.103343 0.326341
vt 0.850813 0.642288
vt 0.850813 0.784574
vt 0.793249 0.728201
vt 0.793249 0.698661
vt 0.405492 0.469131
vt 0.415109 0.502816
vt 0.414421 0.502756
vt 0.246144 0.499565
vt 0.246820 0.469294
vt 0.508655 0.642288
vt 0.650940 0.642288
vt 0.594537 0.699883
vt 0.565058 0.699883
vt 0.417623 0.111456
vt 0.419223 0.111779
vt 0.421473 0.113374
vt 0.420757 0.114788
vt 0.418144 0.113003
vt 0.243274 0.530394
vt 0.244405 0.502415
vt 0.409335 0.528326
vt 0.941279 0.121661
vt 0.947628 0.126043
vt 0.941719 0.131349
vt 0.937605 0.129218
vt 0.850813 0.975620
vt 0.793004 0.919007
vt 0.731701 0.975620
vt 0.699701 0.975620
vt 0.763331 0.919007
vt 0.769615 0.919007
vt 0.458576 0.132958
vt 0.455010 0.131077
vt 0.456330 0.128577
vt 0.459894 0.130453
vt 0.949125 0.032440
vt 0.949125 0.064173
vt 0.942012 0.058944
vt 0.943173 0.037607
vt 0.650940 0.761400
vt 0.650940 0.787229
vt 0.646858 0.788812
vt 0.594537 0.729985
vt 0.594537 0.723610
vt 0.508655 0.701844
vt 0.565058 0.711746
vt 0.859185 0.050209
vt 0.830209 0.050209
vt 0.830209 0.024382
vt 0.859185 0.024380
vt 0.613647 0.887103
vt 0.599693 0.879513
vt 0.605561 0.874660
vt 0.615437 0.879126
vt 0.943283 0.363023
vt 0.964995 0.363023
vt 0.966581 0.367108
vt 0.906842 0.420316
vt 0.901623 0.420316
vt 0.881669 0.505308
vt 0.890090 0.448015
vt 0.069223 0.928440
vt 0.066363 0.890999
vt 0.094891 0.889036
vt 0.097395 0.926279
vt 0.542645 0.845192
vt 0.550313 0.850292
vt 0.544358 0.855446
vt 0.539299 0.852831
vt 0.704290 0.646370
vt 0.705872 0.642288
vt 0.727584 0.642288
vt 0.768651 0.698661
vt 0.763085 0.698661
vt 0.727584 0.784574
vt 0.699701 0.784574
vt 0.763085 0.728201
vt 0.768651 0.728201
vt 0.789199 0.642288
vt 0.780950 0.698661
vt 0.938195 0.035035
vt 0.935713 0.060552
vt 0.543191 0.877157
vt 0.536789 0.878794
vt 0.923604 0.153337
vt 0.914408 0.149187
vt 0.915136 0.129735
vt 0.926204 0.127616
vt 0.606270 0.853719
vt 0.618171 0.851383
vt 0.509141 0.879372
vt 0.508655 0.848542
vt 0.515820 0.853635
vt 0.515027 0.874541
vt 0.640868 0.850124
vt 0.640868 0.882485
vt 0.633764 0.877213
vt 0.634948 0.855373
vt 0.941555 0.027393
vt 0.908510 0.154108
vt 0.907946 0.124646
vt 0.522588 0.886875
vt 0.524522 0.878928
vt 0.599073 0.848629
vt 0.921814 0.161378
vt 0.634129 0.845518
vt 0.630525 0.853078
vt 0.921726 0.068649
vt 0.908425 0.061218
vt 0.914315 0.056372
vt 0.923660 0.060687
vt 0.550313 0.882382
vt 0.907946 0.030712
vt 0.915110 0.035807
vt 0.947628 0.156819
vt 0.940563 0.151541
vt 0.445894 0.867325
vt 0.554084 0.050209
vt 0.554084 0.024385
vt 0.049795 0.883178
vt 0.024542 0.533707
vt 0.830209 0.230936
vt 0.830209 0.169321
vt 0.422701 0.110846
vt 0.830209 0.314261
vt 0.554084 0.314258
vt 0.830209 0.292550
vt 0.081396 0.516873
vt 0.830209 0.109765
vt 0.938889 0.069633
vt 0.539947 0.887887
vt 0.925139 0.024380
vt 0.926416 0.033585
vt 0.527311 0.851364
vt 0.526035 0.842161
vt 0.650940 0.701844
vt 0.594537 0.711746
vt 0.508655 0.793401
vt 0.508655 0.761400
vt 0.565058 0.723610
vt 0.565058 0.729985
vt 0.791257 0.975620
vt 0.781309 0.919007
vt 0.399287 0.148002
vt 0.397268 0.145123
vt 0.408204 0.129236
vt 0.410988 0.131042
vt 0.454256 0.132507
vt 0.457827 0.134381
vt 0.530316 0.050209
vt 0.540809 0.026919
vt 0.928550 0.701844
vt 0.928550 0.642288
vt 0.940923 0.648166
vt 0.940923 0.704813
vt 0.616987 0.842161
vt 0.939029 0.161885
vt 0.935334 0.152955
vt 0.628138 0.878732
vt 0.093359 0.494689
vt 0.789199 0.784574
vt 0.780950 0.728201
vt 0.881669 0.363023
vt 0.890090 0.420316
vt 0.971167 0.505308
vt 0.943283 0.505308
vt 0.901623 0.448015
vt 0.906842 0.448015
vt 0.631737 0.887727
vt 0.925008 0.118394
vt 0.540475 0.311659
vt 0.859185 0.314262
vt 0.859185 0.292550
vt 0.069850 0.491101
vt 0.088700 0.465019
vt 0.075804 0.463954
vt 0.044484 0.465815
vt 0.448787 0.904163
vt 0.899574 0.823014
vt 0.928550 0.823014
vt 0.928550 0.884629
vt 0.899574 0.884629
vt 0.711124 0.836871
vt 0.711335 0.833334
vt 0.731701 0.833334
vt 0.769615 0.889947
vt 0.763331 0.889947
vt 0.859185 0.109765
vt 0.699701 0.648430
vt 0.702474 0.840753
vt 0.401143 0.392500
vt 0.859185 0.230936
vt 0.859185 0.169321
vt 0.899574 0.701844
vt 0.928550 0.761400
vt 0.899574 0.761400
vt 0.644799 0.793401
vt 0.971167 0.369164
vt 0.771294 0.536880
vt 0.508655 0.536880
vt 0.508655 0.480233
vt 0.771294 0.480233
vt 0.771294 0.421628
vt 0.508655 0.421628
vt 0.508655 0.363023
vt 0.771294 0.363023
vt 0.940923 0.761461
vt 0.940923 0.820066
vt 0.424288 0.109826
vt 0.456274 0.126692
vt 0.024380 0.324879
vt 0.028268 0.259832
vt 0.029764 0.459757
vt 0.025883 0.392054
vt 0.035912 0.195479
vt 0.771294 0.593528
vt 0.508655 0.593528
vt 0.899574 0.642288
vt 0.394479 0.182653
vt 0.396243 0.251926
vt 0.247181 0.256054
vt 0.244773 0.185989
vt 0.395820 0.147841
vt 0.243303 0.150909
vt 0.419277 0.109216
vt 0.940923 0.878671
vt 0.093918 0.196001
vt 0.089388 0.164441
vt 0.154627 0.024380
vt 0.396963 0.320316
vt 0.398942 0.149324
vt 0.397054 0.149326
vt 0.822631 0.554069
vt 0.822631 0.565626
vt 0.820054 0.563194
vt 0.099718 0.262566
vt 0.909723 0.210645
vt 0.909723 0.219352
vt 0.907946 0.214646
vt 0.909723 0.268112
vt 0.909723 0.276819
vt 0.907946 0.272818
vt 0.873169 0.554069
vt 0.873169 0.562775
vt 0.871391 0.558074
vt 0.440260 0.168627
vt 0.436592 0.166851
vt 0.456952 0.866317
vt 0.459894 0.903288
vt 0.414835 0.503320
vt 0.420520 0.524674
vt 0.078958 0.173204
vt 0.064723 0.483527
vt 0.415373 0.319624
vt 0.420025 0.393659
vt 0.411931 0.178514
vt 0.414185 0.249240
vt 0.425320 0.470779
vt 0.412827 0.148716
vt 0.433130 0.497767

# vertex normals
vn -1.000000 0.000000 0.000000
vn 0.000000 0.000000 1.000000
vn 0.000000 0.000000 1.000000
vn 0.000000 0.000000 1.000000
vn 0.000000 -0.000000 -1.000000
vn 0.000000 -0.000000 -1.000000
vn 0.000000 -1.000000 0.000000
vn -0.000000 -1.000000 0.000000
vn -0.000000 -1.000000 0.000000
vn 0.000000 0.000000 1.000000
vn 0.000000 0.000000 1.000000
vn 1.000000 0.000000 0.000000
vn 0.999961 0.000000 0.008799
vn 0.999961 0.000000 0.008799
vn -0.000000 -1.000000 0.000000
vn 0.000000 -1.000000 0.000000
vn 0.000000 -1.000000 0.000000
vn 0.002461 0.999997 -0.000000
vn -0.200304 0.979734 -0.000000
vn -0.200304 0.979734 -0.000000
vn -0.000000 -1.000000 0.000000
vn -0.000000 -1.000000 0.000000
vn -0.000000 -1.000000 0.000000
vn -0.397797 0.917473 -0.000000
vn -0.524939 0.851140 -0.000000
vn -0.549800 0.835280 0.005209
vn -0.410811 0.911717 0.002672
vn -0.000000 -1.000000 0.000000
vn 0.694264 0.113448 0.710723
vn 0.697647 0.059288 0.713984
vn 0.697864 0.054056 0.714187
vn -0.996473 0.083917 0.000546
vn -0.985852 0.167617 0.001083
vn -0.986921 0.161203 -0.000000
vn -0.997147 0.075487 -0.000000
vn 0.000000 -1.000000 0.000000
vn 0.000000 -1.000000 0.000000
vn 0.000000 0.000001 1.000000
vn 0.000000 0.000000 1.000000
vn 0.000000 0.000000 1.000000
vn 0.000000 0.000000 1.000000
vn -0.000000 -1.000000 0.000000
vn -0.000000 -1.000000 0.000000
vn 0.000000 -0.000000 -1.000000
vn 0.000000 -0.000000 -1.000000
vn 0.000000 -0.000000 -1.000000
vn 0.000000 -0.000000 -1.000000
vn -0.000000 -1.000000 0.000000
vn -0.000001 -1.000000 0.000000
vn 0.000000 0.000000 1.000000
vn 0.000000 0.000000 1.000000
vn 0.000000 0.000000 1.000000
vn 0.000000 0.000000 1.000000
vn 0.000000 -1.000000 0.000000
vn 0.000000 -1.000000 0.000000
vn 0.000000 -1.000000 0.000000
vn 0.000000 -0.000000 -1.000000
vn 0.000000 -0.000000 -1.000000
vn 0.897432 0.000000 0.441153
vn 0.000000 0.000000 1.000000
vn 0.000000 -0.000000 -1.000000
vn 0.000000 -0.000000 -1.000000
vn -0.996235 0.086692 0.001087
vn 0.997147 0.075486 -0.000000
vn 0.986921 0.161203 -0.000000
vn 0.986884 0.161197 0.008695
vn 0.996706 0.080623 0.008765
vn 0.986772 0.161179 0.017368
vn 0.996579 0.080763 0.017540
vn 0.999845 0.000000 0.017598
vn 0.999845 0.000000 0.017598
vn 0.000000 -0.000000 -1.000000
vn 0.000000 -0.000000 -1.000000
vn 0.000000 0.838477 0.544936
vn 0.000000 0.838477 0.544937
vn -0.984720 0.174131 0.002184
vn -0.573803 0.818928 0.010334
vn -0.427063 0.904206 0.005425
vn 0.000000 -1.000000 0.000000
vn 0.000000 -1.000000 0.000000
vn 0.000000 -1.000000 0.000000
vn 0.000000 -1.000000 0.000000
vn -0.200304 0.979734 -0.000000
vn -0.000000 -1.000000 0.000000
vn -0.000000 -1.000000 0.000000
vn 0.000000 0.838477 0.544936
vn 0.000000 0.838477 0.544936
vn -0.899782 0.000000 0.436340
vn 0.000000 -0.838477 0.544937
vn 0.000000 -0.838477 0.544936
vn 0.000000 -0.838477 0.544936
vn 0.000000 -0.838477 0.544936
vn 0.000000 -0.838477 0.544937
vn 0.368555 0.929606 -0.000000
vn 0.206899 0.978362 -0.000000
vn 0.206899 0.978362 -0.000000
vn 0.373064 0.927805 0.001086
vn 0.464971 0.885326 -0.000000
vn 0.474364 0.880326 0.002122
vn 0.000000 0.000001 1.000000
vn 0.000000 0.838477 0.544936
vn 0.378674 0.925528 0.002182
vn 0.483790 0.875174 0.004264
vn 0.809981 0.199869 -0.551347
vn 0.789397 0.101331 -0.605462
vn 0.790433 0.105354 -0.603421
vn 0.699078 0.000015 0.715045
vn 0.699171 0.000023 0.714955
vn 0.699078 0.000015 0.715045
vn -0.768256 0.075202 0.635710
vn -0.773614 0.143852 0.617113
vn -0.767558 0.068789 0.637278
vn 0.206899 0.978362 -0.000000
vn 0.758039 0.000009 -0.652209
vn 0.758103 0.000013 -0.652135
vn 0.758039 0.000009 -0.652209
vn -0.758038 0.000009 -0.652210
vn -0.758101 0.000013 -0.652137
vn -0.758038 0.000009 -0.652210
vn -0.810923 0.199254 -0.550183
vn -0.790941 0.105043 -0.602808
vn -0.789887 0.101033 -0.604873
vn -0.758038 0.000009 0.652210
vn -0.758038 0.000009 0.652210
vn -0.758101 0.000013 0.652137
vn 0.144735 0.700081 0.699241
vn 0.001633 0.707700 0.706511
vn 0.001827 0.707700 0.706511
vn 0.151597 0.699303 0.698565
vn -0.140086 0.700072 0.700196
vn -0.295008 0.690757 0.660171
vn -0.343917 0.686074 0.641111
vn -0.146514 0.699324 0.699628
vn 0.266396 0.687253 0.675808
vn 0.293754 0.683649 0.668081
vn 0.368312 0.670726 0.643796
vn -0.453125 0.667981 0.590321
vn -0.140153 0.700064 -0.700191
vn 0.001619 0.707699 -0.706512
vn 0.001811 0.707699 -0.706511
vn -0.146587 0.699315 -0.699622
vn 0.144772 0.700077 -0.699238
vn 0.253503 0.680457 -0.687542
vn 0.275274 0.674962 -0.684580
vn 0.151639 0.699298 -0.698561
vn -0.270498 0.676422 -0.685043
vn -0.303344 0.668055 -0.679474
vn 0.337027 0.657252 -0.674116
vn -0.387021 0.642622 -0.661250

# Mesh
g Cube
usemtl Material
f 2/2/1 3/3/1 4/4/1 1/1/1
f 5/5/2 6/6/3 7/7/3 8/8/4
f 11/11/6 12/12/6 9/9/5 10/10/6
f 16/16/7 13/13/7 14/14/8 15/15/9
f 17/17/10 18/18/11 19/19/3 20/20/3
f 22/22/12 23/23/13 24/24/14 21/21/12
f 27/27/6 28/28/6 25/25/6 26/26/6
f 29/29/15 14/30/8 30/31/16 31/32/17
f 32/33/3 33/34/3 34/35/3 35/36/3
f 39/40/18 36/37/18 37/38/19 38/39/20
f 26/26/6 25/25/6 12/12/6 11/11/6
f 40/41/21 29/42/15 41/43/22 42/44/23
f 46/49/27 43/45/24 44/46/25 45/48/26
f 47/52/28 48/53/28 29/50/15 40/51/21
f 52/57/31 49/58/29 50/55/29 51/56/30 52/57/31
f 45/60/33 44/47/34 54/61/35 53/59/32
f 58/65/3 55/62/3 56/63/3 57/64/3
f 59/67/9 15/15/9 14/14/8 29/66/15
f 60/68/7 24/69/36 61/70/37 62/71/7
f 63/72/38 64/73/39 65/74/40 66/75/41
f 61/76/12 67/77/12 68/78/12 69/79/12
f 71/81/7 72/82/42 73/83/43 74/84/7 70/80/7
f 76/86/7 75/85/7 29/50/15 48/53/28
f 78/89/46 71/90/47 70/87/44 77/88/45
f 42/92/6 80/93/6 81/94/6 79/91/6
f 56/98/7 55/99/7 82/95/7 83/96/48 84/97/49
f 29/29/15 31/32/17 86/101/7 85/100/7
f 82/102/50 87/103/51 88/104/52 83/105/53
f 73/107/6 89/108/6 90/109/6 74/106/6
f 94/113/7 95/114/55 91/110/54 92/111/7 93/112/7
f 97/117/55 98/118/7 96/115/7 4/116/56
f 40/41/21 42/44/23 79/120/7 99/119/7
f 69/79/7 68/78/7 101/122/7 100/121/7
f 89/108/7 102/123/7 103/124/7 90/109/7
f 105/126/7 106/127/7 107/128/7 104/125/7
f 80/93/7 108/129/7 109/130/7 81/94/7
f 48/131/1 47/132/1 110/133/1 111/134/1
f 97/135/1 95/136/1 112/137/1 113/138/1
f 61/76/6 69/79/6 100/121/6 62/139/6
f 31/140/12 30/141/12 106/127/12 105/126/12
f 114/143/3 76/142/3 48/131/3 111/134/3
f 42/92/12 41/144/12 108/129/12 80/93/12
f 31/140/6 105/126/6 104/125/6 86/145/6
f 115/147/3 98/146/3 97/135/3 113/138/3
f 117/151/3 16/148/3 15/149/3 116/150/3
f 73/107/12 118/152/12 102/123/12 89/108/12
f 15/149/1 59/153/1 119/154/1 116/150/1
f 56/63/1 120/155/1 121/156/1 57/64/1
f 53/59/32 54/61/35 122/157/1 3/3/1
f 124/159/58 78/89/46 77/88/45 123/158/57
f 125/160/59 126/161/59 5/5/59 87/103/59
f 25/25/6 128/163/6 127/162/6 12/12/6
f 87/103/51 5/5/2 8/8/4 88/104/52
f 64/73/39 51/56/60 17/164/10 65/74/40
f 9/9/5 131/167/5 129/165/61 130/166/62
f 132/168/63 53/59/32 3/3/1 2/2/1
f 123/158/57 77/88/45 133/169/6 28/28/6
f 68/78/3 67/77/3 134/170/3 101/122/3
f 102/123/3 118/152/3 135/171/3 103/124/3
f 62/139/6 100/121/6 137/173/6 136/172/6
f 90/109/7 103/124/7 114/143/7 138/174/7
f 100/121/7 101/122/7 117/151/7 137/173/7
f 74/106/6 90/109/6 138/174/6 139/175/6
f 70/80/7 74/84/7 139/177/7 140/176/7
f 24/178/36 60/179/7 135/180/7 118/181/43
f 60/68/7 62/71/7 136/183/7 75/182/7
f 144/187/67 141/184/64 142/185/65 143/186/66
f 52/57/69 144/187/67 143/186/66 49/58/68
f 24/24/14 23/23/13 145/188/70 146/189/71
f 148/191/73 124/159/58 123/158/57 147/190/72
f 23/23/13 144/187/67 52/57/69 145/188/70
f 65/193/75 150/194/75 151/195/74 149/192/74
f 109/130/3 152/196/3 98/146/3 115/147/3
f 153/197/6 154/198/6 121/156/6 120/155/6
f 155/199/7 115/147/7 113/138/7 112/137/7
f 154/198/7 58/65/7 57/64/7 121/156/7
f 156/200/76 45/60/33 53/59/32 132/168/63
f 152/202/7 85/201/7 96/115/7 98/118/7
f 158/204/7 157/203/7 82/95/7 55/99/7
f 153/207/7 120/208/7 4/205/56 96/206/7
f 94/209/6 155/199/6 112/137/6 95/136/6
f 107/128/3 158/210/3 55/62/3 58/65/3
f 10/10/6 9/9/5 130/166/62 159/211/6
f 131/167/5 93/213/6 92/212/6 129/165/61
f 160/215/78 46/49/27 45/48/26 156/200/77
f 35/36/3 34/35/3 6/216/3 5/217/2
f 3/3/1 122/157/1 161/218/1 4/4/1
f 157/219/3 162/220/3 87/221/51 82/222/50
f 163/223/79 63/224/7 66/225/7 134/226/7 67/227/80
f 77/88/45 70/87/44 140/228/6 133/169/6
f 141/184/64 144/187/67 23/23/13 22/22/12
f 95/114/55 97/117/55 4/116/56 161/229/81 91/110/54
f 24/69/36 146/230/82 163/223/79 67/227/80 61/70/37
f 37/38/19 164/231/83 43/45/24 46/49/27
f 128/163/6 40/233/6 99/232/6 127/162/6
f 13/234/3 149/192/3 165/235/3 14/236/3
f 21/237/84 24/178/36 118/181/43 73/83/43 72/82/42
f 120/208/7 56/98/7 84/97/49 1/238/85 4/205/56
f 151/239/3 166/240/3 167/241/3 168/242/3
f 169/243/3 170/244/3 126/245/3 125/246/3
f 165/235/87 168/247/86 169/248/86 162/220/86
f 65/74/88 17/164/88 171/249/88 150/250/88
f 166/252/91 20/20/89 32/33/90 167/251/90
f 170/254/91 35/36/89 5/217/92 126/253/92
f 171/255/93 17/17/93 20/20/89 166/252/91
f 150/256/3 171/257/3 166/240/3 151/239/3
f 66/258/41 65/193/40 149/192/3 13/234/3
f 133/169/6 140/228/6 40/233/6 128/163/6
f 149/192/74 151/195/74 168/247/86 165/235/87
f 175/262/97 172/259/94 173/260/95 174/261/96
f 75/182/7 136/183/7 59/67/9 29/66/15
f 140/176/7 139/177/7 47/52/28 40/51/21
f 139/175/6 138/174/6 110/133/6 47/132/6
f 137/173/7 117/151/7 116/150/7 119/154/7
f 138/174/7 114/143/7 111/134/7 110/133/7
f 136/172/6 137/173/6 119/154/6 59/153/6
f 28/28/6 133/169/6 128/163/6 25/25/6
f 101/122/3 134/170/3 16/148/3 117/151/3
f 103/124/3 135/171/3 76/142/3 114/143/3
f 135/180/7 60/179/7 75/85/7 76/86/7
f 143/264/99 142/185/98 172/259/94 175/262/97
f 51/56/60 50/55/100 18/265/11 17/164/10
f 38/39/20 37/38/19 46/49/27 160/215/78
f 134/226/7 66/225/7 13/13/7 16/16/7
f 167/251/90 32/33/90 35/36/89 170/254/91
f 162/220/86 169/248/86 125/266/101 87/221/101
f 168/242/3 167/241/3 170/244/3 169/243/3
f 127/162/6 99/232/6 93/213/6 131/167/5
f 14/236/3 165/235/3 162/220/3 157/219/3
f 20/20/3 19/19/3 33/34/3 32/33/3
f 49/268/103 143/264/99 175/262/97 176/267/102
f 174/261/96 173/260/95 177/270/18 36/37/18
f 106/127/3 30/141/3 158/210/3 107/128/3
f 30/31/16 14/30/8 157/203/7 158/204/7
f 41/43/22 29/42/15 85/201/7 152/202/7
f 108/129/3 41/144/3 152/196/3 109/130/3
f 12/12/6 127/162/6 131/167/5 9/9/5
f 86/145/6 104/125/6 154/198/6 153/197/6
f 81/94/7 109/130/7 115/147/7 155/199/7
f 104/125/7 107/128/7 58/65/7 154/198/7
f 99/119/7 79/120/7 94/113/7 93/112/7
f 85/100/7 86/101/7 153/207/7 96/206/7
f 79/91/6 81/94/6 155/199/6 94/209/6
f 142/263/104 141/184/105 124/271/106 148/272/104 142/263/104
f 146/273/82 63/274/7 163/275/79
f 146/189/108 145/188/109 64/73/107 63/72/108
f 8/8/110 7/7/111 156/214/111 132/168/112
f 145/188/109 52/57/31 51/56/30 64/73/107
f 176/267/102 175/262/97 174/261/96 178/276/113
f 71/277/7 21/278/84 72/279/42
f 161/280/81 92/281/7 91/282/54
f 83/283/48 1/284/85 84/285/49
f 22/22/114 21/21/115 71/286/115 78/287/116
f 129/288/117 92/289/118 161/218/118 122/157/119
f 159/290/120 130/291/121 54/61/122 44/47/120 44/46/120
f 88/104/123 8/8/110 132/168/112 2/2/124
f 141/184/105 22/22/114 78/287/116 124/271/106
f 130/291/121 129/288/117 122/157/119 54/61/122
f 83/105/125 88/104/123 2/2/124 1/1/125
f 147/190/72 123/158/57 28/28/6 27/27/6
f 19/19/129 178/276/126 39/40/127 33/34/128
f 34/35/133 38/39/130 160/215/131 6/216/132
f 18/18/135 176/267/134 178/276/126 19/19/129
f 33/34/128 39/40/127 38/39/130 34/35/133
f 50/292/136 49/268/136 176/267/134 18/18/135
f 6/216/132 160/215/131 156/214/137 7/293/137
f 178/276/113 174/261/96 36/37/18 39/40/18
f 177/270/139 26/294/140 11/295/141 164/231/138
f 172/259/143 147/296/144 27/297/145 173/260/142
f 173/260/142 27/297/145 26/294/140 177/270/139
f 164/231/138 11/295/141 10/298/147 43/45/146
f 142/263/148 148/299/148 147/296/144 172/259/143
f 43/45/146 10/298/147 159/300/149 44/46/149
f 36/37/18 177/270/18 164/231/83 37/38/19
